# xmcd CD database file
#
# Track frame offsets:
#	150
#	19597
#	34795
#	49670
#	64071
#	81632
#	101734
#	120104
#	137722
#	156429
#	177105
#	196562
#	208947
#	228004
#	254665
#	270323
#
# Disc length: 3851 seconds
#
# Revision: 0
# Processed by: cddbd v1.5.1PL2 Copyright (c) Steve Scherf et al.
# Submitted via: CDex 1.51
#
DISCID=d40f0910
DTITLE=MENART 11 - KOMPILACIJA
DYEAR=2005
DGENRE=Salsa
TTITLE0=SHAKIRA - DON'T BOTHER
TTITLE1=EURYTHMICS - I'VE GOT A LIFE
TTITLE2=THE STROKES - JUICE BOX
TTITLE3=SYSTEM OF A DOWN - HYPNOTIZE
TTITLE4=CIARA - AND I
TTITLE5=DESTINY'S CHILD - STAND UP FOR LOVE
TTITLE6=WESTLIFE - YOU RAISE ME UP
TTITLE7=IL DIVO - UNCHAINED MELODY
TTITLE8=BARBARA STREISAND - STRANGER IN THE STRANGE LAND
TTITLE9=ANGIE STONE - I WASN'T KIDDING
TTITLE10=SANTANA - JUST FEEL BETTER
TTITLE11=THE OFFSPRING - NEXT TO YOU
TTITLE12=ARCADE FIRE - REBELLION
TTITLE13=DEEP PURPLE - RAPTURE OF THE DEEP
TTITLE14=INXS - PRETTY VEGAS
TTITLE15=DAN D - POÈASI
EXTD=YEAR: 2005
EXTT0=
EXTT1=
EXTT2=
EXTT3=
EXTT4=
EXTT5=
EXTT6=
EXTT7=
EXTT8=
EXTT9=
EXTT10=
EXTT11=
EXTT12=
EXTT13=
EXTT14=
EXTT15=
PLAYORDER=
